<svg role="img" viewBox="-1 -1 22 22" xmlns="http://www.w3.org/2000/svg" id="Quickbooks--Streamline-Simple-Icons" height="22" width="22">
  <desc>
    Quickbooks Streamline Icon: https://streamlinehq.com
  </desc>
  <title>QuickBooks</title>
  <path d="M10 0A10 10 0 0 0 0 10a10 10 0 0 0 10 10 10 10 0 0 0 10 -10A10 10 0 0 0 10 0zm0.535 3.444583333333333c0.7961666666666667 0 1.4413333333333334 0.6466666666666667 1.4413333333333334 1.4443333333333335v7.555583333333335h1.3333333333333335c1.3450000000000002 0 2.4395833333333337 -1.0963333333333334 2.4395833333333337 -2.444166666666667 0 -1.34775 -1.094666666666667 -2.4444166666666667 -2.4396666666666667 -2.4444166666666667h-0.5545V6.111166666666667h0.5545c2.1435 0 3.881416666666667 1.7414166666666668 3.881416666666667 3.8891666666666667 0 2.1478333333333333 -1.7379166666666668 3.8888333333333334 -3.881416666666667 3.8888333333333334H10.535zM6.653083333333333 6.110833333333334h2.77425v10.444166666666666c-0.79625 0 -1.4416666666666667 -0.6465833333333334 -1.4416666666666667 -1.4443333333333335V7.5551666666666675H6.653083333333333c-1.3455000000000001 0 -2.43975 1.0966666666666667 -2.43975 2.4445 0 1.3479166666666667 1.09425 2.4444166666666667 2.43975 2.4444166666666667h0.5545v1.4443333333333335h-0.5545c-2.14375 0 -3.881416666666667 -1.741 -3.881416666666667 -3.8887500000000004 0 -2.1475833333333334 1.7376666666666667 -3.8888333333333334 3.881416666666667 -3.8888333333333334Z" fill="#02aa53" stroke-width="0.8333"></path>
</svg>